<svg width="35" height="35" fill="none" xmlns="http://www.w3.org/2000/svg"><path d="M17.5 0C7.8313 0 0 7.8312 0 17.5c0 7.7438 5.0094 14.2844 11.9656 16.6031.875.1532 1.2031-.3718 1.2031-.8312 0-.4156-.0218-1.7938-.0218-3.2594-4.3969.8094-5.5344-1.0719-5.8844-2.0562-.1969-.5032-1.05-2.0563-1.7938-2.4719-.6124-.3281-1.4874-1.1375-.0218-1.1594 1.3781-.0219 2.3625 1.2688 2.6906 1.7938 1.575 2.6468 4.0906 1.9031 5.0969 1.4437.1531-1.1375.6125-1.9031 1.1156-2.3406-3.8937-.4375-7.9625-1.9469-7.9625-8.6406 0-1.9032.6781-3.4782 1.7938-4.7032-.175-.4375-.7876-2.2312.175-4.6375 0 0 1.4656-.4593 4.8124 1.7938 1.4001-.3938 2.8876-.5907 4.3751-.5907 1.4875 0 2.975.197 4.375.5907 3.3468-2.275 4.8125-1.7938 4.8125-1.7938.9625 2.4063.35 4.2.1749 4.6375 1.1157 1.225 1.7938 2.7782 1.7938 4.7032 0 6.7156-4.0906 8.2031-7.9844 8.6406.6344.5469 1.1813 1.5969 1.1813 3.2375 0 2.3406-.0219 4.2219-.0219 4.8125 0 .4594.3281 1.0062 1.2031.8312A17.5264 17.5264 0 0 0 35 17.5C35 7.8313 27.1688 0 17.5 0Z" fill="#5C49C7"/></svg>