<svg width="30" height="30" fill="none" xmlns="http://www.w3.org/2000/svg"><path d="M0 3.75A3.75 3.75 0 0 1 3.75 0h13.13a3.75 3.75 0 0 1 3.75 3.75v5.63h5.62A3.75 3.75 0 0 1 30 13.12v13.13A3.75 3.75 0 0 1 26.25 30H13.12a3.75 3.75 0 0 1-3.74-3.75v-5.63H3.75A3.75 3.75 0 0 1 0 16.88V3.76Zm3.75-1.88a1.88 1.88 0 0 0-1.88 1.88v13.13a1.87 1.87 0 0 0 1.88 1.87h13.13a1.87 1.87 0 0 0 1.87-1.88V3.76a1.87 1.87 0 0 0-1.88-1.88H3.76Zm13.38 18.75c.37.56.76 1.09 1.19 1.58a14.54 14.54 0 0 1-5.2 2.42c.34.41.85 1.2 1.05 1.63 2.1-.67 3.9-1.58 5.4-2.8a13.43 13.43 0 0 0 5.5 2.76c.25-.48.78-1.26 1.18-1.67-2.1-.47-3.86-1.3-5.29-2.4 1.28-1.4 2.3-3.1 3.04-5.18h2.25V15h-5.63v1.96h1.44c-.6 1.59-1.39 2.9-2.39 4-.27-.3-.53-.6-.77-.93-.53.34-1.14.54-1.77.59Z" fill="#3E2BAD"/></svg>