<svg width="30" height="22" xmlns="http://www.w3.org/2000/svg"><path d="M15.94 2.94c1.22-1.13 3.34-1.46 5.83-1.24 2.32.2 4.7.86 6.36 1.47v16.28a27.89 27.89 0 0 0-6.17-1.33c-2.05-.18-4.27-.06-6.02.8V2.95ZM15 1.46C13.15.06 10.48-.14 8.04.07A28.4 28.4 0 0 0 .54 1.9a.91.91 0 0 0-.4.3.75.75 0 0 0-.14.44v18.05c0 .14.04.27.11.4.08.11.19.21.32.29a1.03 1.03 0 0 0 .9.06 26.4 26.4 0 0 1 6.9-1.68c2.64-.23 4.85.14 6.04 1.44.09.1.2.17.32.23a1.05 1.05 0 0 0 .82 0 .93.93 0 0 0 .32-.23c1.19-1.3 3.4-1.67 6.04-1.44 2.59.23 5.25 1.02 6.9 1.68a1.06 1.06 0 0 0 .9-.06.87.87 0 0 0 .32-.3.74.74 0 0 0 .11-.4V2.64a.75.75 0 0 0-.15-.44.91.91 0 0 0-.4-.3A28.4 28.4 0 0 0 21.96.07c-2.44-.21-5.11 0-6.96 1.39Z" fill="#5C49C7"/></svg>