<svg width="111" height="36" viewBox="0 0 111 36" fill="none" xmlns="http://www.w3.org/2000/svg">
<g filter="url(#filter0_d_1_4)">
<path d="M29.864 6.696C32.36 6.696 34.34 7.452 35.804 8.964C37.292 10.476 38.036 12.576 38.036 15.264V27H31.916V16.092C31.916 14.796 31.568 13.8 30.872 13.104C30.2 12.384 29.264 12.024 28.064 12.024C26.864 12.024 25.916 12.384 25.22 13.104C24.548 13.8 24.212 14.796 24.212 16.092V27H18.092V16.092C18.092 14.796 17.744 13.8 17.048 13.104C16.376 12.384 15.44 12.024 14.24 12.024C13.04 12.024 12.092 12.384 11.396 13.104C10.724 13.8 10.388 14.796 10.388 16.092V27H4.232V6.912H10.388V9.432C11.012 8.592 11.828 7.932 12.836 7.452C13.844 6.948 14.984 6.696 16.256 6.696C17.768 6.696 19.112 7.02 20.288 7.668C21.488 8.316 22.424 9.24 23.096 10.44C23.792 9.336 24.74 8.436 25.94 7.74C27.14 7.044 28.448 6.696 29.864 6.696ZM50.5134 27.288C48.7614 27.288 47.2014 26.988 45.8334 26.388C44.4654 25.788 43.3854 24.972 42.5934 23.94C41.8014 22.884 41.3574 21.708 41.2614 20.412H47.3454C47.4174 21.108 47.7414 21.672 48.3174 22.104C48.8934 22.536 49.6014 22.752 50.4414 22.752C51.2094 22.752 51.7974 22.608 52.2054 22.32C52.6374 22.008 52.8534 21.612 52.8534 21.132C52.8534 20.556 52.5534 20.136 51.9534 19.872C51.3534 19.584 50.3814 19.272 49.0374 18.936C47.5974 18.6 46.3974 18.252 45.4374 17.892C44.4774 17.508 43.6494 16.92 42.9534 16.128C42.2574 15.312 41.9094 14.22 41.9094 12.852C41.9094 11.7 42.2214 10.656 42.8454 9.72C43.4934 8.76 44.4294 8.004 45.6534 7.452C46.9014 6.9 48.3774 6.624 50.0814 6.624C52.6014 6.624 54.5814 7.248 56.0214 8.496C57.4854 9.744 58.3254 11.4 58.5414 13.464H52.8534C52.7574 12.768 52.4454 12.216 51.9174 11.808C51.4134 11.4 50.7414 11.196 49.9014 11.196C49.1814 11.196 48.6294 11.34 48.2454 11.628C47.8614 11.892 47.6694 12.264 47.6694 12.744C47.6694 13.32 47.9694 13.752 48.5694 14.04C49.1934 14.328 50.1534 14.616 51.4494 14.904C52.9374 15.288 54.1494 15.672 55.0854 16.056C56.0214 16.416 56.8374 17.016 57.5334 17.856C58.2534 18.672 58.6254 19.776 58.6494 21.168C58.6494 22.344 58.3134 23.4 57.6414 24.336C56.9934 25.248 56.0454 25.968 54.7974 26.496C53.5734 27.024 52.1454 27.288 50.5134 27.288ZM68.5716 9.756C69.1476 8.82 69.9756 8.064 71.0556 7.488C72.1356 6.912 73.3716 6.624 74.7636 6.624C76.4196 6.624 77.9196 7.044 79.2636 7.884C80.6076 8.724 81.6636 9.924 82.4316 11.484C83.2236 13.044 83.6196 14.856 83.6196 16.92C83.6196 18.984 83.2236 20.808 82.4316 22.392C81.6636 23.952 80.6076 25.164 79.2636 26.028C77.9196 26.868 76.4196 27.288 74.7636 27.288C73.3476 27.288 72.1116 27.012 71.0556 26.46C69.9996 25.884 69.1716 25.128 68.5716 24.192V27H62.4156V0.36H68.5716V9.756ZM77.3556 16.92C77.3556 15.384 76.9236 14.184 76.0596 13.32C75.2196 12.432 74.1756 11.988 72.9276 11.988C71.7036 11.988 70.6596 12.432 69.7956 13.32C68.9556 14.208 68.5356 15.42 68.5356 16.956C68.5356 18.492 68.9556 19.704 69.7956 20.592C70.6596 21.48 71.7036 21.924 72.9276 21.924C74.1516 21.924 75.1956 21.48 76.0596 20.592C76.9236 19.68 77.3556 18.456 77.3556 16.92ZM85.6252 16.92C85.6252 14.856 86.0092 13.044 86.7772 11.484C87.5692 9.924 88.6372 8.724 89.9812 7.884C91.3252 7.044 92.8252 6.624 94.4812 6.624C95.8972 6.624 97.1332 6.912 98.1892 7.488C99.2692 8.064 100.097 8.82 100.673 9.756V6.912H106.829V27H100.673V24.156C100.073 25.092 99.2332 25.848 98.1532 26.424C97.0972 27 95.8612 27.288 94.4452 27.288C92.8132 27.288 91.3252 26.868 89.9812 26.028C88.6372 25.164 87.5692 23.952 86.7772 22.392C86.0092 20.808 85.6252 18.984 85.6252 16.92ZM100.673 16.956C100.673 15.42 100.241 14.208 99.3772 13.32C98.5372 12.432 97.5052 11.988 96.2812 11.988C95.0572 11.988 94.0132 12.432 93.1492 13.32C92.3092 14.184 91.8892 15.384 91.8892 16.92C91.8892 18.456 92.3092 19.68 93.1492 20.592C94.0132 21.48 95.0572 21.924 96.2812 21.924C97.5052 21.924 98.5372 21.48 99.3772 20.592C100.241 19.704 100.673 18.492 100.673 16.956Z" fill="#7562E0"/>
</g>
<defs>
<filter id="filter0_d_1_4" x="0.231995" y="0.359985" width="110.597" height="34.928" filterUnits="userSpaceOnUse" color-interpolation-filters="sRGB">
<feFlood flood-opacity="0" result="BackgroundImageFix"/>
<feColorMatrix in="SourceAlpha" type="matrix" values="0 0 0 0 0 0 0 0 0 0 0 0 0 0 0 0 0 0 127 0" result="hardAlpha"/>
<feOffset dy="4"/>
<feGaussianBlur stdDeviation="2"/>
<feComposite in2="hardAlpha" operator="out"/>
<feColorMatrix type="matrix" values="0 0 0 0 0 0 0 0 0 0 0 0 0 0 0 0 0 0 0.25 0"/>
<feBlend mode="normal" in2="BackgroundImageFix" result="effect1_dropShadow_1_4"/>
<feBlend mode="normal" in="SourceGraphic" in2="effect1_dropShadow_1_4" result="shape"/>
</filter>
</defs>
</svg>
