<svg width="35" height="36" fill="none" xmlns="http://www.w3.org/2000/svg"><path d="M29.89 5.11A17.26 17.26 0 0 0 17.57 0a17.46 17.46 0 0 0-15.1 26.13L0 35.16l9.24-2.42a17.46 17.46 0 0 0 24.44-21.98 17.36 17.36 0 0 0-3.8-5.65Zm-12.32 26.8c-2.6 0-5.15-.7-7.38-2.02l-.53-.32-5.48 1.44 1.47-5.35-.35-.55a14.5 14.5 0 1 1 25.65-13.23 14.5 14.5 0 0 1-13.4 20.03Zm7.94-10.84a74.94 74.94 0 0 0-2.97-1.42c-.4-.15-.7-.22-.98.21-.3.44-1.13 1.42-1.38 1.7-.25.3-.5.33-.94.12-.44-.22-1.84-.68-3.5-2.17a13.28 13.28 0 0 1-2.43-3.01c-.25-.44-.02-.67.2-.89.19-.2.43-.5.65-.76.22-.25.29-.43.43-.72.15-.3.08-.55-.03-.77-.11-.21-.98-2.36-1.34-3.23-.36-.85-.71-.73-.98-.74-.25-.02-.55-.02-.84-.02a1.6 1.6 0 0 0-1.16.54c-.4.44-1.52 1.5-1.52 3.64 0 2.15 1.56 4.2 1.78 4.5.22.3 3.06 4.69 7.44 6.58 1.03.45 1.84.71 2.48.91 1.04.34 1.98.29 2.73.18.84-.13 2.58-1.05 2.94-2.07.36-1.02.36-1.9.25-2.07-.1-.19-.4-.3-.83-.51Z" fill="#5C49C7"/></svg>